<svg width="33" height="52" viewBox="0 0 33 52" fill="none" xmlns="http://www.w3.org/2000/svg">
<g clip-path="url(#clip0_91_88)">
<path d="M24.1446 8.83496H6.34709C6.23471 8.83496 6.12692 8.90632 6.04745 9.03335C5.96798 9.16037 5.92334 9.33266 5.92334 9.5123V35.251C5.92334 35.4306 5.96798 35.6029 6.04745 35.73C6.12692 35.857 6.23471 35.9283 6.34709 35.9283H15.034C14.9658 35.4832 14.9191 35.0303 14.8941 34.5737H6.77084V10.1896H23.7209V23.7363C24.0128 23.907 24.2961 24.1131 24.5684 24.3527V9.5123C24.5684 9.33266 24.5237 9.16037 24.4443 9.03335C24.3648 8.90632 24.257 8.83496 24.1446 8.83496Z" fill="#005DFF"/>
<path d="M22.4495 14.9311H22.0258V12.2218C22.0258 12.0421 21.9811 11.8698 21.9016 11.7428C21.8222 11.6158 21.7144 11.5444 21.602 11.5444H19.907C19.7946 11.5444 19.6868 11.6158 19.6074 11.7428C19.5279 11.8698 19.4832 12.0421 19.4832 12.2218V14.9311H19.0595C18.9471 14.9311 18.8393 15.0025 18.7599 15.1295C18.6804 15.2565 18.6357 15.4288 18.6357 15.6084V18.3178C18.6357 18.4974 18.6804 18.6697 18.7599 18.7967C18.8393 18.9238 18.9471 18.9951 19.0595 18.9951H19.4832V23.5333C19.7602 23.3907 20.0435 23.282 20.3307 23.2081V18.9951H21.1782V23.0591H21.4283C21.6278 23.0577 21.8273 23.0735 22.0258 23.1065V18.9951H22.4495C22.5619 18.9951 22.6697 18.9238 22.7491 18.7967C22.8286 18.6697 22.8733 18.4974 22.8733 18.3178V15.6084C22.8733 15.4288 22.8286 15.2565 22.7491 15.1295C22.6697 15.0025 22.5619 14.9311 22.4495 14.9311ZM20.3307 12.8991H21.1782V14.9311H20.3307V12.8991ZM22.0258 17.6404H19.4832V16.2858H22.0258V17.6404Z" fill="#005DFF"/>
<path d="M16.9407 22.3818H16.517V12.2218C16.517 12.0421 16.4723 11.8698 16.3928 11.7428C16.3134 11.6158 16.2056 11.5444 16.0932 11.5444H14.3982C14.3407 11.5443 14.2838 11.5629 14.231 11.599C14.1782 11.6352 14.1305 11.6881 14.0908 11.7546C14.0512 11.8212 14.0204 11.8999 14.0004 11.986C13.9804 12.0721 13.9716 12.1639 13.9745 12.2556V22.4157H13.5507C13.4383 22.4157 13.3305 22.487 13.2511 22.614C13.1716 22.7411 13.127 22.9133 13.127 23.093V25.8023C13.127 25.982 13.1716 26.1542 13.2511 26.2813C13.3305 26.4083 13.4383 26.4797 13.5507 26.4797H13.9745V32.5757C13.9745 32.7553 14.0191 32.9276 14.0986 33.0546C14.178 33.1816 14.2858 33.253 14.3982 33.253H14.8813C14.8888 32.799 14.9157 32.3464 14.9618 31.8983H14.822V26.4797H15.6695V28.5523C15.9044 27.8608 16.1888 27.2153 16.517 26.6287V26.4458H16.6017C16.836 26.0337 17.0911 25.6531 17.3645 25.3079V23.0591C17.3645 22.8795 17.3198 22.7072 17.2403 22.5802C17.1609 22.4531 17.0531 22.3818 16.9407 22.3818ZM14.822 12.8991H15.6695V22.3818H14.822V12.8991ZM16.517 25.0911H13.9745V23.7365H16.517V25.0911Z" fill="#005DFF"/>
<path d="M11.4319 16.9631H11.0082V12.2218C11.0082 12.0421 10.9635 11.8698 10.8841 11.7428C10.8046 11.6158 10.6968 11.5444 10.5844 11.5444H8.88942C8.77703 11.5444 8.66925 11.6158 8.58978 11.7428C8.51031 11.8698 8.46567 12.0421 8.46567 12.2218V16.9631H8.04191C7.92953 16.9631 7.82175 17.0345 7.74228 17.1615C7.66281 17.2885 7.61816 17.4608 7.61816 17.6404V20.3498C7.61816 20.5294 7.66281 20.7017 7.74228 20.8287C7.82175 20.9558 7.92953 21.0271 8.04191 21.0271H8.46567V32.5418C8.46567 32.7214 8.51031 32.8937 8.58978 33.0208C8.66925 33.1478 8.77703 33.2191 8.88942 33.2191H10.5844C10.6968 33.2191 10.8046 33.1478 10.8841 33.0208C10.9635 32.8937 11.0082 32.7214 11.0082 32.5418V21.0271H11.4319C11.5443 21.0271 11.6521 20.9558 11.7316 20.8287C11.811 20.7017 11.8557 20.5294 11.8557 20.3498V17.6404C11.8557 17.4608 11.811 17.2885 11.7316 17.1615C11.6521 17.0345 11.5443 16.9631 11.4319 16.9631ZM9.31317 12.8991H10.1607V16.9631H9.31317V12.8991ZM10.1607 31.8645H9.31317V21.0271H10.1607V31.8645ZM11.0082 19.6724H8.46567V18.3178H11.0082V19.6724Z" fill="#005DFF"/>
<path d="M26.9794 31.3834C26.9371 31.3197 26.887 31.2706 26.8323 31.2391C26.7777 31.2077 26.7195 31.1945 26.6615 31.2005L26.1276 31.2479C26.0344 30.7608 25.9124 30.2891 25.7632 29.839L26.1615 29.2633C26.2051 29.2039 26.2401 29.1302 26.2642 29.0472C26.2884 28.9642 26.301 28.8739 26.3014 28.7824C26.3034 28.6899 26.2935 28.5976 26.2724 28.5114C26.2513 28.4252 26.2193 28.3469 26.1785 28.2812L24.6911 25.9037C24.6064 25.775 24.4944 25.7024 24.3775 25.7005C24.3195 25.7035 24.2625 25.7254 24.21 25.765C24.1575 25.8047 24.1107 25.8611 24.0724 25.9308L23.7165 26.5743C23.4355 26.3319 23.1403 26.1346 22.8351 25.985L22.8647 25.1316C22.8685 25.0389 22.8602 24.9459 22.8406 24.8586C22.8209 24.7712 22.7902 24.6912 22.7503 24.6236C22.7104 24.5567 22.6624 24.5036 22.6092 24.4675C22.556 24.4314 22.4988 24.413 22.441 24.4136H20.3222C20.2644 24.4134 20.2071 24.4322 20.154 24.4687C20.1008 24.5053 20.0529 24.5589 20.0132 24.6261C19.9735 24.6934 19.9429 24.7729 19.9231 24.8599C19.9034 24.9468 19.895 25.0393 19.8985 25.1316L19.9281 25.985C19.6234 26.134 19.3283 26.329 19.0467 26.5675L18.6865 25.9308C18.6483 25.8611 18.6014 25.8047 18.549 25.765C18.4965 25.7254 18.4395 25.7035 18.3814 25.7005C18.324 25.6991 18.2669 25.7163 18.2137 25.7513C18.1605 25.7862 18.1123 25.8381 18.0721 25.9037L16.6017 28.2812C16.5601 28.3463 16.5273 28.4244 16.5055 28.5106C16.4836 28.5969 16.4731 28.6894 16.4746 28.7824C16.477 28.874 16.491 28.9638 16.5158 29.0465C16.5405 29.1291 16.5755 29.2029 16.6186 29.2633L17.017 29.839C16.8678 30.2891 16.7457 30.7608 16.6525 31.2479L16.1186 31.2005C16.0606 31.1945 16.0025 31.2077 15.9478 31.2391C15.8931 31.2706 15.8431 31.3197 15.8008 31.3834C15.759 31.4471 15.7257 31.5239 15.7031 31.6089C15.6806 31.6939 15.6691 31.7854 15.6694 31.8778V35.2645C15.6691 35.3569 15.6806 35.4484 15.7031 35.5334C15.7257 35.6185 15.759 35.6952 15.8008 35.7589C15.8431 35.8226 15.8931 35.8717 15.9478 35.9032C16.0025 35.9346 16.0606 35.9478 16.1186 35.9418L16.6483 35.8944C16.7418 36.3845 16.8653 36.8586 17.017 37.31L16.6186 37.879C16.5755 37.9394 16.5405 38.0132 16.5158 38.0958C16.491 38.1785 16.477 38.2683 16.4746 38.3599C16.4731 38.4529 16.4836 38.5454 16.5055 38.6317C16.5273 38.7179 16.5601 38.796 16.6017 38.8611L18.0891 41.2386C18.1293 41.3042 18.1775 41.3561 18.2307 41.391C18.2838 41.426 18.3409 41.4432 18.3984 41.4418C18.4564 41.4388 18.5134 41.4169 18.5659 41.3773C18.6184 41.3377 18.6652 41.2812 18.7035 41.2115L19.0594 40.5748C19.3419 40.8172 19.6385 41.0146 19.9451 41.1641L19.9154 42.0107C19.912 42.1031 19.9203 42.1955 19.9401 42.2824C19.9598 42.3694 19.9905 42.4489 20.0302 42.5162C20.0699 42.5835 20.1178 42.637 20.1709 42.6736C20.2241 42.7101 20.2813 42.7289 20.3392 42.7287H22.4579C22.5157 42.7293 22.573 42.711 22.6262 42.6748C22.6794 42.6387 22.7274 42.5856 22.7673 42.5187C22.8071 42.4511 22.8378 42.3711 22.8575 42.2838C22.8772 42.1964 22.8854 42.1034 22.8817 42.0107L22.852 41.1641C23.1586 41.0146 23.4553 40.8172 23.7377 40.5748L24.0894 41.2115C24.1276 41.2812 24.1745 41.3377 24.227 41.3773C24.2794 41.4169 24.3365 41.4388 24.3945 41.4418C24.5115 41.4413 24.6238 41.3685 24.708 41.2386L26.1954 38.8611C26.2362 38.7955 26.2682 38.7171 26.2893 38.6309C26.3105 38.5447 26.3203 38.4524 26.3183 38.3599C26.318 38.2684 26.3053 38.1781 26.2812 38.0951C26.2571 38.0121 26.222 37.9384 26.1785 37.879L25.7801 37.31C25.9286 36.8571 26.0506 36.3832 26.1446 35.8944L26.6785 35.9418C26.7365 35.9478 26.7946 35.9346 26.8493 35.9032C26.904 35.8717 26.954 35.8226 26.9963 35.7589C27.0381 35.6952 27.0714 35.6185 27.094 35.5334C27.1166 35.4484 27.128 35.3569 27.1277 35.2645V31.8778C27.1259 31.7834 27.1118 31.6907 27.0862 31.6055C27.0607 31.5204 27.0243 31.4447 26.9794 31.3834ZM26.2632 34.5262L25.8395 34.4856C25.7415 34.4817 25.6458 34.5323 25.5685 34.6286C25.4912 34.7249 25.4372 34.8611 25.4157 35.0139C25.3126 35.7344 25.1335 36.4215 24.886 37.0459C24.8325 37.1814 24.8108 37.343 24.8247 37.5017C24.8387 37.6605 24.8875 37.8062 24.9623 37.9129L25.2843 38.3667L24.4368 39.7213L24.1529 39.2066C24.0862 39.0869 23.995 39.009 23.8957 38.9867C23.7964 38.9644 23.6953 38.9991 23.6105 39.0847C23.2198 39.4812 22.79 39.7697 22.3393 39.9381C22.2445 39.9739 22.1603 40.0607 22.1008 40.1841C22.0414 40.3075 22.0104 40.4598 22.013 40.6154L22.0342 41.2928H20.7841L20.8095 40.6154C20.8119 40.4589 20.7803 40.3058 20.72 40.1823C20.6598 40.0588 20.5746 39.9725 20.479 39.9381C20.0287 39.7679 19.5991 39.4795 19.2078 39.0847C19.1229 38.9991 19.0219 38.9644 18.9226 38.9867C18.8233 39.009 18.7321 39.0869 18.6654 39.2066L18.3814 39.7213L17.5339 38.3667L17.856 37.9129C17.9308 37.8062 17.9796 37.6605 17.9935 37.5017C18.0075 37.343 17.9858 37.1814 17.9323 37.0459C17.6841 36.4221 17.505 35.7347 17.4026 35.0139C17.3811 34.8611 17.3271 34.7249 17.2498 34.6286C17.1725 34.5323 17.0768 34.4817 16.9788 34.4856L16.5551 34.5262V32.589L16.9788 32.6297C17.0768 32.6335 17.1725 32.5829 17.2498 32.4866C17.3271 32.3903 17.3811 32.2541 17.4026 32.1013C17.5045 31.3802 17.6837 30.6928 17.9323 30.0693C17.9858 29.9338 18.0075 29.7722 17.9935 29.6135C17.9796 29.4547 17.9308 29.3091 17.856 29.2023L17.5339 28.7418L18.3814 27.3871L18.6696 27.9019C18.7364 28.0215 18.8275 28.0994 18.9268 28.1217C19.0261 28.1441 19.1272 28.1093 19.212 28.0238C19.604 27.6326 20.0335 27.3466 20.4833 27.1771C20.5788 27.1427 20.664 27.0564 20.7243 26.9329C20.7845 26.8094 20.8162 26.6564 20.8138 26.4998L20.7884 25.8224H21.996L21.9749 26.4998C21.9723 26.6554 22.0033 26.8078 22.0627 26.9311C22.1221 27.0545 22.2063 27.1414 22.3011 27.1771C22.7521 27.3408 23.1821 27.6272 23.5724 28.0238C23.6572 28.1093 23.7583 28.1441 23.8576 28.1217C23.9569 28.0994 24.048 28.0215 24.1148 27.9019L24.4029 27.3803L25.2505 28.735L24.9284 29.1956C24.8536 29.3023 24.8048 29.448 24.7908 29.6067C24.7769 29.7655 24.7986 29.927 24.8521 30.0626C25.0989 30.6875 25.278 31.3744 25.3818 32.0946C25.4033 32.2474 25.4573 32.3835 25.5346 32.4798C25.6119 32.5762 25.7076 32.6267 25.8056 32.6229L26.2293 32.5822L26.2632 34.5262Z" fill="#005DFF"/>
<path d="M24.5767 30.706L24.0258 32.7922C23.9934 32.9147 23.9391 33.0191 23.8698 33.0926C23.8004 33.1661 23.7191 33.2053 23.636 33.2054H23.5893L22.1782 32.9683L22.2672 31.6137L22.9113 31.722C22.6917 31.2483 22.3904 30.8872 22.0444 30.6828C21.6983 30.4783 21.3225 30.4395 20.9629 30.571C20.6033 30.7025 20.2754 30.9986 20.0194 31.4232C19.7634 31.8477 19.5903 32.3823 19.5213 32.9616L18.6738 32.6906C18.7794 31.8619 19.0325 31.0996 19.4027 30.4954C19.7729 29.8912 20.2444 29.4708 20.7605 29.2848C21.2766 29.0987 21.8154 29.155 22.312 29.4468C22.8085 29.7386 23.2418 30.2535 23.5597 30.9296L23.7927 30.1709L24.5767 30.706Z" fill="#005DFF"/>
<path d="M24.0981 34.4519C23.9952 35.2608 23.7518 36.0069 23.3957 36.6047C23.0395 37.2025 22.5852 37.6276 22.0847 37.8313C21.5843 38.035 21.0581 38.009 20.5665 37.7563C20.0748 37.5036 19.6378 37.0344 19.3054 36.4026L19.2122 36.9715L18.3901 36.6193L18.7588 34.4112C18.7858 34.2497 18.8492 34.1099 18.9368 34.0186C19.0244 33.9273 19.1301 33.891 19.2334 33.9168L20.5894 34.2419L20.4623 35.5965L19.9199 35.4679C20.1434 35.9233 20.4438 36.2668 20.7857 36.4577C21.1276 36.6485 21.4965 36.6788 21.8488 36.5448C22.2011 36.4108 22.522 36.1181 22.7734 35.7016C23.0249 35.285 23.1963 34.762 23.2675 34.1945L24.0981 34.4519Z" fill="#005DFF"/>
</g>
<defs>
<clipPath id="clip0_91_88">
<rect width="31.7813" height="50.8001" fill="white" transform="translate(0.626465 0.368164)"/>
</clipPath>
</defs>
</svg>
