<svg width="30" height="30" viewBox="0 0 30 30" fill="none" xmlns="http://www.w3.org/2000/svg">
<path d="M7.5 20.2149C7.77716 23.3407 10.3368 25.5574 14.2333 25.8445V28.125H16.1896V25.8445C20.4448 25.5096 23.0859 23.1493 23.0859 19.6567C23.0859 16.6745 21.3089 14.9522 17.5428 13.9793L16.1896 13.6285V6.49985C18.2928 6.70717 19.7112 7.83946 20.0698 9.52992H22.8251C22.5153 6.53174 19.9394 4.3788 16.1896 4.13958V1.875H14.2333V4.18742C10.5976 4.61801 8.10322 6.94638 8.10322 10.104C8.10322 12.8311 9.91289 14.7608 13.092 15.5741L14.2333 15.8771V23.4364C12.0812 23.1174 10.5976 21.9373 10.239 20.2149H7.5ZM13.8583 13.0225C11.9019 12.5281 10.8585 11.4755 10.8585 9.99241C10.8585 8.2222 12.179 6.91449 14.2333 6.56364V13.1182L13.8583 13.0225ZM16.8418 16.531C19.2547 17.137 20.3144 18.1417 20.3144 19.8481C20.3144 21.9054 18.7656 23.2769 16.1896 23.4842V16.3715L16.8418 16.531Z" fill="#0076FF"/>
</svg>
