<svg width="30" height="30" viewBox="0 0 30 30" fill="none" xmlns="http://www.w3.org/2000/svg">
<path d="M0 8.4375C0 6.8842 1.2592 5.625 2.8125 5.625H27.1875C28.7408 5.625 30 6.8842 30 8.4375V11.25C30 11.7678 29.5803 12.1875 29.0625 12.1875C27.5092 12.1875 26.25 13.4467 26.25 15C26.25 16.5533 27.5092 17.8125 29.0625 17.8125C29.5803 17.8125 30 18.2322 30 18.75V21.5625C30 23.1158 28.7408 24.375 27.1875 24.375H2.8125C1.2592 24.375 0 23.1158 0 21.5625V18.75C0 18.2322 0.419733 17.8125 0.9375 17.8125C2.4908 17.8125 3.75 16.5533 3.75 15C3.75 13.4467 2.4908 12.1875 0.9375 12.1875C0.419733 12.1875 0 11.7678 0 11.25V8.4375ZM2.8125 7.5C2.29473 7.5 1.875 7.91973 1.875 8.4375V10.4063C4.0146 10.8406 5.625 12.7322 5.625 15C5.625 17.2678 4.0146 19.1594 1.875 19.5937V21.5625C1.875 22.0803 2.29473 22.5 2.8125 22.5H27.1875C27.7053 22.5 28.125 22.0803 28.125 21.5625V19.5937C25.9854 19.1594 24.375 17.2678 24.375 15C24.375 12.7322 25.9854 10.8406 28.125 10.4063V8.4375C28.125 7.91973 27.7053 7.5 27.1875 7.5H2.8125Z" fill="#005DFF"/>
</svg>
