<svg width="34" height="32" viewBox="0 0 34 32" fill="none" xmlns="http://www.w3.org/2000/svg">
<g filter="url(#filter0_d_68_73)">
<path d="M5.3335 13.7345C5.3335 11.5282 5.3335 10.425 5.79093 9.45527C6.24837 8.48557 7.10744 7.76763 8.82558 6.33176L10.4922 4.9389C13.5978 2.34357 15.1505 1.0459 17.0002 1.0459C18.8498 1.0459 20.4025 2.34357 23.5081 4.9389L25.1747 6.33176C26.8929 7.76763 27.752 8.48557 28.2094 9.45527C28.6668 10.425 28.6668 11.5282 28.6668 13.7345V20.6251C28.6668 23.6893 28.6668 25.2213 27.6905 26.1732C26.7142 27.1251 25.1429 27.1251 22.0002 27.1251H12.0002C8.85747 27.1251 7.28612 27.1251 6.30981 26.1732C5.3335 25.2213 5.3335 23.6893 5.3335 20.6251V13.7345Z" stroke="#FEFEFE" shape-rendering="crispEdges"/>
</g>
<defs>
<filter id="filter0_d_68_73" x="0.833496" y="0.545898" width="32.3335" height="35.0791" filterUnits="userSpaceOnUse" color-interpolation-filters="sRGB">
<feFlood flood-opacity="0" result="BackgroundImageFix"/>
<feColorMatrix in="SourceAlpha" type="matrix" values="0 0 0 0 0 0 0 0 0 0 0 0 0 0 0 0 0 0 127 0" result="hardAlpha"/>
<feOffset dy="4"/>
<feGaussianBlur stdDeviation="2"/>
<feComposite in2="hardAlpha" operator="out"/>
<feColorMatrix type="matrix" values="0 0 0 0 0 0 0 0 0 0 0 0 0 0 0 0 0 0 0.25 0"/>
<feBlend mode="normal" in2="BackgroundImageFix" result="effect1_dropShadow_68_73"/>
<feBlend mode="normal" in="SourceGraphic" in2="effect1_dropShadow_68_73" result="shape"/>
</filter>
</defs>
</svg>
