<svg width="17" height="20" viewBox="0 0 17 20" fill="none" xmlns="http://www.w3.org/2000/svg">
<path d="M13.4604 16.4189V17.4189H14.4604V16.4189H13.4604ZM10.909 11.718C10.5594 11.2904 9.92939 11.2272 9.50181 11.5767C9.07423 11.9263 9.01098 12.5563 9.36054 12.9839L10.909 11.718ZM12.4604 11.5373V16.4189H14.4604V11.5373H12.4604ZM13.4604 15.4189H9.4696V17.4189H13.4604V15.4189ZM14.2347 15.786L10.909 11.718L9.36054 12.9839L12.6862 17.0519L14.2347 15.786Z" fill="#33363F"/>
<path d="M2.81824 16.4189H1.81824V17.4189H2.81824V16.4189ZM6.91815 12.9839C7.26771 12.5563 7.20446 11.9263 6.77687 11.5767C6.34929 11.2272 5.71929 11.2904 5.36973 11.718L6.91815 12.9839ZM1.81824 11.5373V16.4189H3.81824V11.5373H1.81824ZM2.81824 17.4189H6.80908V15.4189H2.81824V17.4189ZM3.59244 17.0519L6.91815 12.9839L5.36973 11.718L2.04403 15.786L3.59244 17.0519Z" fill="#33363F"/>
<path d="M13.4604 3.40157H14.4604V2.40157H13.4604V3.40157ZM9.36054 6.83667C9.01098 7.26425 9.07423 7.89425 9.50181 8.2438C9.92939 8.59336 10.5594 8.53011 10.909 8.10253L9.36054 6.83667ZM14.4604 8.2832V3.40157H12.4604V8.2832H14.4604ZM13.4604 2.40157H9.4696V4.40157H13.4604V2.40157ZM12.6862 2.76864L9.36054 6.83667L10.909 8.10253L14.2347 4.0345L12.6862 2.76864Z" fill="#33363F"/>
<path d="M2.81824 3.40157V2.40157H1.81824V3.40157H2.81824ZM5.36973 8.10253C5.71929 8.53011 6.34929 8.59336 6.77687 8.2438C7.20446 7.89425 7.26771 7.26425 6.91815 6.83667L5.36973 8.10253ZM3.81824 8.2832V3.40157H1.81824V8.2832H3.81824ZM2.81824 4.40157H6.80908V2.40157H2.81824V4.40157ZM2.04403 4.0345L5.36973 8.10253L6.91815 6.83667L3.59244 2.76864L2.04403 4.0345Z" fill="#33363F"/>
</svg>
