<svg width="20" height="21" viewBox="0 0 20 21" fill="none" xmlns="http://www.w3.org/2000/svg">
<path d="M20 10.5C20 16.299 15.5228 21 10 21C4.47715 21 0 16.299 0 10.5C0 4.70101 4.47715 0 10 0C15.5228 0 20 4.70101 20 10.5Z" fill="#BEBEBE"/>
<path d="M3.6923 18.6481C4.23346 15.8518 6.85168 13.7308 10 13.7308C13.1483 13.7308 15.7665 15.8518 16.3077 18.6481C14.587 20.1185 12.3915 21 10 21C7.60848 21 5.41304 20.1185 3.6923 18.6481Z" fill="white"/>
<path d="M13.0769 9.08654C13.0769 10.908 11.6706 12.3846 9.9359 12.3846C8.20116 12.3846 6.79487 10.908 6.79487 9.08654C6.79487 7.26506 8.20116 5.78846 9.9359 5.78846C11.6706 5.78846 13.0769 7.26506 13.0769 9.08654Z" fill="white"/>
</svg>
