<svg width="16" height="21" viewBox="0 0 16 21" fill="none" xmlns="http://www.w3.org/2000/svg">
<path fill-rule="evenodd" clip-rule="evenodd" d="M9.88562 5.49727C9.92226 5.36931 9.98977 5.22294 10.1082 5.07049C10.2276 4.91665 10.4332 4.72381 10.7221 4.58201C10.9039 4.36126 11.1367 4.20934 11.3952 4.15863C11.8546 4.7909 12.1519 5.5513 12.2236 6.38149L12.2866 7.11252C12.0864 7.28512 11.8456 7.38579 11.5866 7.38579C11.2519 7.38579 10.9478 7.21783 10.7221 6.94382C10.5176 6.84344 10.3548 6.71748 10.2348 6.59789L10.231 6.55341C10.1977 6.16739 10.0755 5.80886 9.88562 5.49727ZM7.54884 4.34208C6.40253 4.46275 5.48206 5.38136 5.38094 6.55341L5.12346 9.53764C5.04606 10.4347 4.81192 11.3112 4.43167 12.1273L4.03573 12.9771C3.88233 13.3064 3.79209 13.5017 3.73753 13.6467L3.72763 13.6738L3.75629 13.6762C3.91083 13.688 4.12599 13.6887 4.48921 13.6887H11.1227C11.4859 13.6887 11.7011 13.688 11.8556 13.6762L11.8843 13.6738L11.8744 13.6467C11.8198 13.5017 11.7296 13.3064 11.5762 12.9771L11.1802 12.1273C10.9047 11.5359 10.7059 10.9128 10.5878 10.2732C10.8964 10.3461 11.2291 10.3858 11.5866 10.3858C11.9618 10.3858 12.3097 10.3421 12.6311 10.2621C12.719 10.6123 12.8401 10.9541 12.9931 11.2826L13.3891 12.1325L13.4033 12.163C13.5377 12.4513 13.6616 12.7172 13.7464 12.9428C13.8338 13.1752 13.926 13.4785 13.9034 13.8206C13.8583 14.502 13.4687 15.1133 12.8701 15.4419C12.5695 15.6069 12.2557 15.6514 12.0081 15.6704C11.7678 15.6887 11.4745 15.6887 11.1564 15.6887L11.1227 15.6887H4.48921L4.45548 15.6887C4.13741 15.6887 3.84412 15.6887 3.60379 15.6704C3.35618 15.6514 3.04239 15.6069 2.74183 15.4419C2.14318 15.1133 1.75357 14.502 1.70854 13.8206C1.68593 13.4785 1.77811 13.1752 1.86552 12.9428C1.95036 12.7172 2.07424 12.4513 2.2086 12.163L2.22284 12.1325L2.61879 11.2826C2.90025 10.6785 3.07357 10.0297 3.13086 9.36572L3.38834 6.38148C3.58615 4.0889 5.50485 2.32861 7.80595 2.32861C8.0877 2.32861 8.3637 2.355 8.63152 2.40552C8.11001 2.97053 7.75532 3.6615 7.54884 4.34208Z" fill="#1D4DA0"/>
<path d="M5.9801 15.2282C6.0878 16.0046 6.32512 16.6907 6.65525 17.18C6.98538 17.6693 7.38987 17.9346 7.80599 17.9346C8.22211 17.9346 8.6266 17.6693 8.95673 17.18C9.28686 16.6907 9.52418 16.0046 9.63188 15.2282" stroke="#1D4DA0" stroke-width="2" stroke-linecap="round"/>
<path d="M11.5873 7.88587C12.6698 7.88587 13.3475 6.81039 13.3475 5.76301C13.3475 4.71562 12.6698 3.64014 11.5873 3.64014C10.5049 3.64014 9.82715 4.71562 9.82715 5.76301C9.82715 6.81039 10.5049 7.88587 11.5873 7.88587Z" fill="#1D4DA0" stroke="#1D4DA0"/>
</svg>
